<?xml version="1.0" encoding="UTF-8" standalone="no"?>
<!-- Created with Inkscape (http://www.inkscape.org/) -->

<svg
   width="39.073391mm"
   height="39.073387mm"
   viewBox="0 0 39.073391 39.073387"
   version="1.1"
   id="svg1"
   xml:space="preserve"
   xmlns="http://www.w3.org/2000/svg"
   xmlns:svg="http://www.w3.org/2000/svg"><defs
     id="defs1"><filter
       style="color-interpolation-filters:sRGB"
       id="filter81-6-8-3"
       x="-0.047999942"
       y="-0.036363559"
       width="1.0959999"
       height="1.0878786"><feFlood
         result="flood"
         in="SourceGraphic"
         flood-opacity="0.196078"
         flood-color="rgb(21,17,14)"
         id="feFlood80-2-0-7" /><feGaussianBlur
         result="blur"
         in="SourceGraphic"
         stdDeviation="0.500000"
         id="feGaussianBlur80-7-4-8" /><feOffset
         result="offset"
         in="blur"
         dx="0.000000"
         dy="0.500000"
         id="feOffset80-0-6-8" /><feComposite
         result="comp1"
         operator="in"
         in="flood"
         in2="offset"
         id="feComposite80-3-0-3" /><feComposite
         result="comp2"
         operator="over"
         in="SourceGraphic"
         in2="comp1"
         id="feComposite81-9-3-8" /></filter><filter
       style="color-interpolation-filters:sRGB"
       id="filter85-3-4-1"
       x="-0.088328714"
       y="-0.081590936"
       width="1.1766574"
       height="1.1971781"><feFlood
         result="flood"
         in="SourceGraphic"
         flood-opacity="0.196078"
         flood-color="rgb(21,17,14)"
         id="feFlood84-9-7-5" /><feGaussianBlur
         result="blur"
         in="SourceGraphic"
         stdDeviation="0.300000"
         id="feGaussianBlur84-8-1-3" /><feOffset
         result="offset"
         in="blur"
         dx="0.000000"
         dy="0.300000"
         id="feOffset84-6-3-5" /><feComposite
         result="comp1"
         operator="in"
         in="flood"
         in2="offset"
         id="feComposite84-5-8-4" /><feComposite
         result="comp2"
         operator="over"
         in="SourceGraphic"
         in2="comp1"
         id="feComposite85-7-4-3" /></filter></defs><g
     id="layer1"
     transform="translate(-272.9367,-194.06978)"><rect
       style="fill:#ffbf00;fill-opacity:1;stroke-width:1.072;stroke-linecap:square"
       id="rect7"
       width="39.073391"
       height="39.073391"
       x="272.93671"
       y="194.06978"
       ry="6.613718" /><path
       id="path2-9-0-08-6-3-5-4-1-9-6-5"
       style="fill:#ffdf80;fill-opacity:1;stroke:none;stroke-width:0.881572;stroke-linecap:square;stroke-dasharray:none;stroke-opacity:1;filter:url(#filter85-3-4-1)"
       d="m 252.10967,196.96512 v 0.36171 7.39162 a 1.0183859,1.0710448 0 0 0 1.01843,1.07118 h 7.02861 c 0.0356,0 0.0701,-0.003 0.10433,-0.009 a 10.559271,14.364592 0 0 0 -8.15137,-8.81551 z"
       transform="matrix(0.65945443,0,0,0.65945443,129.08132,72.200595)" /><path
       id="path2-9-0-3-7-99-9-7-5-1-9-9"
       style="fill:#ffffff;fill-opacity:1;stroke:none;stroke-width:0.128035;stroke-linecap:square;filter:url(#filter81-6-8-3)"
       d="m 248.85188,196.44219 a 12.5,16.5 0 0 0 -12.50001,16.49977 12.5,16.5 0 0 0 12.50001,16.50028 12.5,16.5 0 0 0 12.50002,-16.50028 12.5,16.5 0 0 0 -0.98186,-6.39909 h -7.87859 a 1.2055589,1.2302639 0 0 1 -1.20561,-1.23042 v -8.49044 -0.061 a 12.5,16.5 0 0 0 -2.43396,-0.31884 z m -9.23871,22.83272 h 5.51491 a 0.7990923,0.84041191 0 0 1 0.79892,0.84025 v 5.80017 0.2837 a 8.2854958,11.2714 0 0 1 -6.39599,-6.91741 c 0.0269,-0.005 0.0543,-0.007 0.0822,-0.007 z"
       transform="matrix(0.65945443,0,0,0.65945443,129.08132,72.200595)" /></g></svg>
